<?xml version="1.0" standalone="no"?>
<!DOCTYPE svg PUBLIC "-//W3C//DTD SVG 20010904//EN"
 "http://www.w3.org/TR/2001/REC-SVG-20010904/DTD/svg10.dtd">
<svg version="1.0" xmlns="http://www.w3.org/2000/svg"
 width="700.000000pt" height="700.000000pt" viewBox="0 0 700.000000 700.000000"
 preserveAspectRatio="xMidYMid meet">
<metadata>
Created by potrace 1.11, written by Peter Selinger 2001-2013
</metadata>
<g transform="translate(0.000000,700.000000) scale(0.100000,-0.100000)"
fill="#000000" stroke="none">
<path d="M3378 6415 c-2 -1 -48 -5 -103 -9 -222 -14 -545 -79 -720 -145 -175
-66 -234 -91 -355 -151 -272 -135 -515 -308 -736 -525 -185 -182 -348 -382
-430 -530 -9 -16 -20 -32 -23 -35 -15 -11 -119 -208 -179 -341 -97 -211 -193
-547 -218 -764 -4 -27 -8 -52 -9 -55 -8 -13 -19 -227 -19 -360 0 -373 52 -665
181 -1015 283 -770 896 -1395 1663 -1698 105 -42 302 -104 390 -123 19 -4 37
-8 40 -9 195 -46 403 -69 630 -69 138 0 346 11 359 18 3 2 35 7 70 10 36 4 67
8 70 10 3 2 27 7 52 10 66 9 268 62 386 101 809 270 1465 892 1783 1689 91
229 144 432 184 706 26 176 26 538 1 730 -13 91 -37 227 -50 280 -8 30 -16 66
-19 80 -3 14 -12 50 -21 80 -9 30 -17 62 -19 70 -2 8 -23 67 -46 130 -209 571
-598 1069 -1100 1412 -168 114 -386 231 -545 292 -38 15 -79 31 -90 36 -45 20
-253 81 -358 104 -112 25 -265 49 -387 62 -63 6 -377 14 -382 9z m208 -586
c392 -6 842 -147 1181 -371 494 -325 836 -797 988 -1360 14 -54 30 -121 35
-150 5 -29 11 -62 14 -73 2 -11 7 -51 11 -90 4 -38 9 -83 11 -100 5 -37 5
-353 0 -380 -2 -11 -7 -51 -11 -89 -7 -73 -13 -111 -20 -136 -2 -8 -7 -31 -10
-50 -3 -19 -8 -43 -11 -52 -3 -9 -6 -25 -8 -35 -21 -106 -87 -290 -165 -456
-207 -442 -614 -856 -1048 -1066 -60 -29 -119 -59 -133 -66 -104 -55 -484
-156 -640 -170 -41 -4 -78 -9 -82 -12 -9 -5 -358 -3 -403 2 -16 2 -55 6 -85
10 -337 41 -701 175 -994 368 -66 44 -123 83 -126 86 -3 4 -30 26 -60 51 -338
275 -592 637 -733 1045 -53 155 -80 267 -107 440 -19 126 -29 452 -16 520 2
11 7 52 11 90 21 214 118 538 225 750 280 556 744 965 1325 1169 71 25 236 71
290 81 131 24 226 36 320 41 61 4 112 8 114 10 2 2 7 2 11 -1 3 -2 55 -5 116
-6z"/>
<path d="M2380 4653 c-181 -46 -321 -210 -335 -392 -18 -250 201 -479 447
-467 85 5 132 19 201 60 255 154 297 477 90 681 -110 108 -265 154 -403 118z"/>
<path d="M4455 4662 c-177 -36 -319 -170 -358 -338 -26 -111 -4 -231 59 -325
161 -240 466 -275 668 -76 88 87 136 203 131 318 -4 87 -18 133 -60 203 -59
98 -138 163 -245 201 -43 15 -156 25 -195 17z"/>
<path d="M3398 2915 c-2 -2 -34 -5 -73 -9 -75 -6 -125 -13 -165 -21 -14 -3
-36 -7 -50 -10 -136 -25 -384 -127 -520 -213 -81 -52 -200 -151 -264 -220
l-50 -53 205 -204 c112 -113 206 -205 209 -205 3 1 23 24 45 52 109 138 338
254 560 284 28 3 54 8 58 11 10 6 285 5 295 -1 4 -2 30 -7 57 -10 115 -16 222
-50 335 -108 113 -59 184 -118 254 -213 14 -19 24 -11 220 185 113 113 206
207 206 210 0 3 -35 40 -77 82 -123 121 -221 192 -379 270 -75 38 -216 93
-259 103 -5 1 -30 7 -54 14 -57 16 -171 38 -245 46 -56 7 -303 14 -308 10z"/>
</g>
</svg>
