<?xml version="1.0" standalone="no"?>
<!DOCTYPE svg PUBLIC "-//W3C//DTD SVG 20010904//EN"
 "http://www.w3.org/TR/2001/REC-SVG-20010904/DTD/svg10.dtd">
<svg version="1.0" xmlns="http://www.w3.org/2000/svg"
 width="260.000000pt" height="260.000000pt" viewBox="0 0 260.000000 260.000000"
 preserveAspectRatio="xMidYMid meet">
<metadata>
Created by potrace 1.11, written by Peter Selinger 2001-2013
</metadata>
<g transform="translate(0.000000,260.000000) scale(0.100000,-0.100000)"
fill="#000000" stroke="none">
<path d="M1280 2473 c0 -4 5 -15 10 -23 8 -13 10 -13 10 2 0 9 -4 20 -10 23
-5 3 -10 3 -10 -2z"/>
<path d="M1300 2378 c0 -30 -6 -42 -33 -62 -52 -40 -127 -69 -193 -77 -76 -8
-136 -36 -191 -90 -24 -23 -43 -39 -43 -36 0 28 46 120 68 136 l27 20 -29 1
c-62 0 -182 -86 -237 -169 l-16 -25 -67 72 c-60 63 -100 92 -111 80 -2 -2 9
-29 25 -61 16 -31 34 -81 41 -111 l12 -53 -70 -69 c-65 -64 -71 -75 -90 -144
l-20 -75 -8 38 c-4 21 -5 60 -3 88 3 27 2 49 -2 49 -7 0 -71 -135 -84 -176 -7
-22 18 -144 36 -178 10 -18 9 -19 -4 -8 -8 7 -23 34 -33 60 -18 49 -42 84 -32
47 3 -11 11 -45 17 -76 6 -31 19 -65 29 -75 17 -18 16 -20 -34 -62 -48 -39
-53 -47 -59 -95 -12 -103 -12 -104 36 -63 23 20 52 36 65 36 27 0 27 6 7 -81
-22 -96 -62 -118 -149 -84 -13 5 -5 -8 21 -34 39 -41 111 -70 135 -56 15 10
10 -4 -12 -35 -18 -24 -21 -38 -16 -82 6 -59 52 -173 60 -148 3 8 8 29 12 45
6 29 60 95 77 95 4 0 8 -37 8 -82 0 -97 -16 -131 -76 -169 -38 -23 -38 -23
-14 -30 41 -11 137 -10 165 3 31 14 40 6 25 -21 -14 -27 -2 -27 27 1 l23 21 0
-57 c0 -31 -5 -66 -10 -77 -22 -41 33 -16 98 44 33 32 40 30 22 -4 -12 -21 -1
-26 17 -8 9 9 11 7 6 -9 -4 -16 5 -28 38 -51 23 -17 45 -31 48 -31 4 0 5 15 3
33 -2 23 3 40 17 57 20 24 20 24 21 4 0 -12 -7 -27 -15 -34 -8 -7 -15 -17 -15
-22 0 -15 53 0 68 19 10 15 12 14 12 -9 0 -15 -5 -30 -10 -33 -6 -3 -10 -11
-10 -16 0 -5 18 0 40 11 l40 21 9 -23 c7 -18 4 -28 -12 -45 -24 -27 -18 -39
12 -23 33 17 37 -10 17 -116 -15 -79 -23 -98 -49 -124 -17 -16 -27 -33 -24
-37 4 -3 20 6 36 21 23 22 32 44 45 114 10 48 22 105 28 127 9 38 11 39 25 20
13 -19 14 -17 8 16 -7 38 6 72 45 118 21 24 21 24 106 6 18 -4 3 8 -38 30 -62
34 -106 75 -181 166 l-28 34 25 -36 c15 -20 26 -41 26 -47 0 -34 -86 -41 -189
-17 -47 11 -75 25 -105 52 -55 49 -66 71 -59 120 l5 41 27 -30 c18 -20 44 -33
86 -43 77 -18 96 -19 74 -2 -13 10 -15 24 -10 75 l6 63 35 -30 c46 -40 51 -39
30 6 -10 21 -21 48 -25 61 l-7 23 37 -19 c36 -18 39 -18 72 -1 45 23 123 33
167 21 20 -6 36 -8 36 -5 0 2 -20 31 -45 63 -33 42 -54 60 -77 65 l-32 8 34
17 c29 14 38 14 51 3 14 -11 15 -10 11 16 -5 38 37 119 83 159 47 41 58 41 49
-3 -6 -33 -5 -35 21 -35 23 0 25 -3 20 -22 -4 -13 -11 -27 -16 -33 -5 -5 -9
-15 -9 -22 0 -21 49 18 50 39 0 9 5 28 11 41 8 18 8 30 0 46 -19 35 7 25 30
-11 l21 -33 -5 30 c-3 17 -9 39 -13 49 -6 15 -4 17 7 11 12 -8 12 -6 0 9 -8 9
-28 23 -45 30 -35 16 -103 82 -93 92 17 18 104 15 149 -4 43 -19 47 -24 57
-72 6 -28 9 -56 5 -61 -3 -5 -3 -9 1 -9 14 0 45 68 45 100 0 22 3 31 10 24 14
-14 38 -137 32 -173 -2 -17 -2 -31 0 -31 6 0 83 103 98 131 7 11 10 49 8 82
-4 80 14 85 64 20 66 -89 76 -118 79 -238 2 -97 5 -114 25 -141 76 -101 87
-223 40 -454 -15 -74 -33 -141 -41 -149 -18 -18 -87 -28 -244 -37 -77 -5 -116
-10 -100 -14 62 -17 71 -28 66 -78 -3 -26 -8 -60 -12 -77 -5 -24 -1 -20 23 21
19 31 43 57 64 67 18 9 34 14 36 13 1 -2 -4 -30 -11 -62 -14 -59 -12 -144 3
-144 4 0 10 -8 12 -18 7 -26 104 -76 125 -64 14 8 13 11 -8 16 -48 14 -87 40
-104 69 -15 25 -17 45 -12 120 7 100 25 140 68 145 71 10 100 23 114 55 26 59
67 306 63 379 -3 62 -2 67 14 62 22 -7 23 2 3 22 -8 9 -15 25 -15 37 0 21 0
21 19 1 26 -28 41 -59 41 -83 0 -36 16 -23 26 22 6 23 7 57 3 75 -5 27 -4 32
8 28 60 -23 87 -12 37 14 -14 8 -32 27 -40 42 -14 27 -20 98 -7 98 13 0 83
-79 83 -95 0 -9 5 -13 11 -9 7 4 9 22 6 48 l-6 41 42 1 c23 1 56 8 72 15 l30
13 -37 4 c-43 4 -68 31 -68 75 0 25 -34 107 -45 107 -2 0 5 -21 16 -46 30 -67
15 -66 -19 2 -17 33 -42 76 -56 97 -35 51 -33 55 9 18 20 -17 42 -31 50 -31 8
0 25 -18 38 -41 23 -38 25 -39 30 -17 4 14 -1 35 -13 56 -11 18 -20 34 -20 36
0 2 17 8 38 14 39 12 105 55 97 64 -3 2 -27 0 -54 -5 -83 -18 -136 21 -170
126 -7 20 -16 37 -20 37 -4 0 -16 7 -27 15 -18 14 -17 14 11 9 25 -5 38 1 78
36 54 48 56 61 6 31 -54 -33 -62 -24 -16 18 43 40 114 131 102 131 -4 0 -40
-12 -81 -26 -58 -21 -86 -25 -133 -22 -53 4 -67 10 -120 52 -57 44 -223 135
-253 137 -7 1 -2 5 12 9 l25 8 -25 2 -25 2 25 7 c24 8 24 8 -14 25 -40 17
-100 15 -153 -5 -42 -15 -33 9 10 30 76 37 185 26 255 -26 36 -27 40 -40 15
-45 -13 -3 -10 -6 10 -10 38 -7 35 11 -10 54 -52 50 -118 70 -215 66 -43 -2
-78 -6 -78 -10 0 -4 -19 -17 -42 -29 -24 -12 -76 -46 -115 -75 -40 -30 -78
-54 -85 -54 -7 0 -32 -9 -55 -20 -24 -10 -43 -15 -43 -10 0 12 186 140 204
140 8 0 27 5 41 12 26 12 27 14 22 88 -5 84 -26 146 -27 78z m-470 -163 c-7
-8 -18 -15 -24 -15 -6 0 -2 7 8 15 25 19 32 19 16 0z m-36 -34 c3 -5 -1 -14
-9 -21 -13 -11 -14 -10 -9 5 6 14 4 16 -6 10 -9 -5 -11 -4 -6 3 9 14 23 15 30
3z m186 6 c0 -2 -28 -25 -62 -52 -35 -26 -54 -38 -43 -25 28 32 105 88 105 77z
m-379 -91 c16 -21 29 -46 29 -55 -1 -9 -7 -2 -14 14 -7 17 -23 39 -35 50 l-22
19 5 -29 c5 -22 2 -19 -9 10 -8 22 -20 49 -26 60 -18 31 38 -22 72 -69z m109
5 c-29 -42 -36 -39 -8 3 13 19 24 33 26 31 3 -2 -6 -18 -18 -34z m292 -3 c-7
-7 -18 -13 -25 -13 -6 0 -32 -26 -57 -57 -46 -58 -57 -65 -45 -29 10 33 56 82
90 97 38 17 52 17 37 2z m634 -9 c19 -11 34 -21 34 -22 0 -1 -39 -2 -87 -2
-49 0 -96 -5 -106 -10 -14 -9 -4 -16 65 -44 135 -55 130 -59 -44 -40 -118 13
-308 71 -274 85 46 18 237 51 305 53 59 1 80 -3 107 -20z m-1059 -76 c-3 -10
-5 -2 -5 17 0 19 2 27 5 18 2 -10 2 -26 0 -35z m1365 -77 c54 0 98 -4 98 -8 0
-32 -137 -60 -176 -36 -126 79 -150 103 -67 66 35 -16 69 -21 145 -22z m-716
20 c79 -28 224 -142 224 -176 0 -14 -14 -12 -28 2 -16 16 -15 5 3 -40 l15 -37
-31 35 c-89 100 -109 120 -168 173 -36 31 -62 57 -59 57 3 0 23 -6 44 -14z
m849 -16 c-3 -5 -12 -10 -18 -10 -7 0 -6 4 3 10 19 12 23 12 15 0z m-587 -55
c64 -33 105 -71 141 -129 34 -55 39 -100 15 -134 -25 -37 -34 -25 -34 46 0 37
-4 72 -8 77 -5 8 -130 119 -181 162 -16 13 28 -1 67 -22z m-697 -92 c-9 -15
-11 -14 -12 12 -3 41 0 67 8 85 5 9 9 -4 11 -32 2 -26 -2 -56 -7 -65z m278 29
c18 -37 35 -92 27 -92 -2 0 -19 26 -38 58 -19 31 -43 70 -54 87 l-19 30 33
-24 c18 -12 41 -39 51 -59z m659 52 c19 -13 30 -34 17 -34 -11 0 -115 49 -115
55 0 10 73 -6 98 -21z m-47 -55 c43 -22 84 -67 105 -118 8 -19 25 -46 36 -58
31 -33 8 -28 -48 10 -27 18 -68 60 -93 95 -24 35 -59 73 -77 85 -70 45 -22 37
77 -14z m-133 -59 c15 -23 22 -48 22 -82 0 -51 -13 -58 -24 -13 -4 14 -20 54
-36 87 -17 34 -30 64 -30 66 0 12 48 -29 68 -58z m452 -45 c25 -67 22 -70 -23
-20 -46 52 -54 73 -15 39 16 -12 14 -9 -4 12 -16 16 -28 34 -28 39 0 14 61
-48 70 -70z m-793 28 c21 -27 55 -94 50 -99 -2 -3 -25 19 -51 47 -35 39 -44
54 -34 60 18 12 19 11 35 -8z m-457 -18 c0 -2 -14 -26 -31 -52 -27 -42 -30
-44 -24 -18 8 36 32 75 45 75 6 0 10 -2 10 -5z m1226 -76 c28 -30 28 -31 4
-19 -25 13 -40 28 -40 43 0 12 5 8 36 -24z m-1126 -37 c0 -13 -4 -20 -10 -17
-5 3 -10 21 -10 38 0 24 3 28 10 17 5 -8 10 -25 10 -38z m342 -141 c13 -28 26
-39 55 -47 l38 -11 -31 -16 c-46 -24 -120 -111 -137 -160 -12 -37 -18 -42 -46
-45 -38 -4 -37 -1 6 98 13 30 28 75 34 100 6 24 17 53 26 62 15 17 15 18 -1
18 -9 0 -15 4 -12 8 2 4 -4 26 -14 49 -38 84 -35 90 16 34 27 -29 57 -70 66
-90z m68 78 c0 -4 -6 -9 -14 -12 -14 -5 -36 37 -36 67 0 11 49 -44 50 -55z
m651 -86 c11 -23 19 -53 16 -65 -3 -22 -4 -22 -12 -3 -29 73 -46 108 -50 104
-2 -3 2 -23 10 -44 8 -22 14 -51 14 -65 -1 -26 -31 57 -42 118 l-7 33 25 -18
c14 -10 34 -37 46 -60z m94 -24 c17 -47 19 -68 7 -53 -9 9 -52 120 -52 132 0
15 32 -41 45 -79z m-1046 -62 c-23 -57 -35 -76 -25 -37 19 71 30 99 37 94 5
-3 -1 -28 -12 -57z m-690 -17 c-23 -27 -44 -50 -46 -50 -8 0 21 46 45 73 44
47 45 29 1 -23z m746 31 c3 -5 1 -12 -5 -16 -5 -3 -10 1 -10 9 0 18 6 21 15 7z
m-128 -87 c-9 -33 -16 -42 -20 -31 -6 15 23 90 31 82 2 -2 -3 -24 -11 -51z
m143 -8 c0 -91 -5 -100 -41 -79 -32 19 -32 25 3 101 11 23 24 42 29 42 5 0 9
-29 9 -64z m-226 -219 c5 -22 5 -22 -10 -2 -9 11 -20 29 -26 40 -11 19 -10 20
10 2 11 -10 22 -28 26 -40z m186 -23 l55 -18 -33 -8 c-28 -7 -41 -4 -78 17
-24 14 -44 28 -44 31 0 7 38 -1 100 -22z m-174 -197 c7 -23 2 -29 -19 -22 -14
6 -36 46 -40 76 -2 8 -6 21 -11 29 -4 8 9 -3 28 -25 20 -22 39 -48 42 -58z"/>
<path d="M1178 1381 c-18 -16 -31 -31 -28 -34 3 -2 20 11 38 29 40 42 34 44
-10 5z"/>
<path d="M1366 2357 c3 -10 9 -15 12 -12 3 3 0 11 -7 18 -10 9 -11 8 -5 -6z"/>
<path d="M1684 1468 c-4 -7 -3 -8 4 -4 12 7 52 -13 52 -27 0 -4 -9 -3 -19 3
-16 8 -23 5 -40 -16 -21 -27 -51 -113 -51 -143 1 -12 29 52 30 67 0 9 20 0 20
-10 0 -6 8 -20 17 -30 13 -14 14 -21 5 -30 -7 -7 -11 -23 -11 -37 1 -21 2 -22
6 -6 3 11 9 24 14 30 14 14 11 36 -8 57 -22 25 -10 34 16 11 17 -14 21 -29 21
-85 0 -68 -10 -84 -29 -50 -6 9 -11 12 -11 6 0 -21 29 -39 42 -26 12 12 13
114 2 165 -3 15 -3 27 0 27 3 0 12 -12 21 -27 l16 -28 -6 27 c-3 15 -10 40
-17 55 -6 15 -10 32 -9 37 3 12 -30 46 -45 46 -7 0 -16 -5 -20 -12z m43 -120
c-3 -8 -6 -5 -6 6 -1 11 2 17 5 13 3 -3 4 -12 1 -19z"/>
<path d="M1350 1252 c0 -18 5 -32 10 -32 6 0 8 11 4 28 -10 39 -14 40 -14 4z"/>
<path d="M1361 1194 c0 -11 -8 -29 -16 -40 -14 -19 -15 -18 -36 6 l-21 25 14
-25 c22 -35 46 -37 58 -4 6 15 9 35 7 43 -3 11 -5 10 -6 -5z"/>
<path d="M1772 1139 c-12 -18 -20 -21 -55 -16 -27 4 -36 2 -26 -4 7 -5 26 -9
41 -9 34 0 51 -29 46 -75 -2 -19 0 -31 4 -29 6 4 8 153 3 154 0 0 -6 -10 -13
-21z"/>
<path d="M1310 831 c0 -14 85 -31 152 -30 59 2 57 2 -27 9 -52 4 -91 12 -93
19 -4 13 -32 15 -32 2z"/>
<path d="M1598 803 c7 -3 16 -2 19 1 4 3 -2 6 -13 5 -11 0 -14 -3 -6 -6z"/>
<path d="M1526 169 c-13 -39 -25 -93 -21 -97 5 -5 9 6 24 62 10 37 7 65 -3 35z"/>
</g>
</svg>
