<?xml version="1.0" encoding="UTF-8"?>
<svg width="148px" height="142px" viewBox="0 0 148 142" version="1.1" xmlns="http://www.w3.org/2000/svg" xmlns:xlink="http://www.w3.org/1999/xlink">
    <!-- Generator: Sketch 61.2 (89653) - https://sketch.com -->
    <title>Logo</title>
    <desc>Created with Sketch.</desc>
    <g id="Test-Palettes" stroke="none" stroke-width="1" fill="none" fill-rule="evenodd">
        <g id="Splash-Screens" transform="translate(-114.000000, -655.000000)" fill="#FF6464" fill-rule="nonzero">
            <g id="Splash" transform="translate(0.000000, 320.000000)">
                <g id="Logo" transform="translate(114.000000, 335.000000)">
                    <g id="Parts">
                        <path d="M135.927248,28.4855368 C142.154064,28.4855368 147.248731,33.5816688 147.248731,39.8102746 L147.248731,141.732915 L124.605766,119.083439 L45.3553874,119.083439 C39.128572,119.083439 34.0339048,113.987307 34.0339048,107.758701 L34.0338401,97.1542234 L45.3548401,97.1542234 L45.3553874,102.096332 C45.3553874,105.210635 47.902721,107.758701 51.0161287,107.758701 L124.605766,107.758701 L135.927248,119.083439 L135.927248,45.4726434 C135.927248,42.3583406 133.379915,39.8102746 130.266507,39.8102746 L119.69184,39.8102234 L119.69184,28.4852234 L135.927248,28.4855368 Z" id="Combined-Shape"></path>
                        <path d="M101.893344,0 L11.3214826,0 C5.09466718,0 0,5.096132 0,11.3247378 L0,113.247378 L22.6429652,90.5979023 L101.893344,90.5979023 C108.120159,90.5979023 113.214826,85.5017703 113.214826,79.2731645 L113.214826,11.3247378 C113.214826,5.096132 108.120159,0 101.893344,0 Z M96.2326022,79.2731645 L22.6429652,79.2731645 L11.3214826,90.5979023 L11.3214826,16.9871067 C11.3214826,13.8728038 13.8688162,11.3247378 16.9822239,11.3247378 L96.2326022,11.3247378 C99.34601,11.3247378 101.893344,13.8728038 101.893344,16.9871067 L101.893344,73.6107956 C101.893344,76.7250985 99.34601,79.2731645 96.2326022,79.2731645 Z" id="Shape"></path>
                    </g>
                </g>
            </g>
        </g>
    </g>
</svg>