<?xml version="1.0" standalone="no"?>
<!DOCTYPE svg PUBLIC "-//W3C//DTD SVG 20010904//EN"
 "http://www.w3.org/TR/2001/REC-SVG-20010904/DTD/svg10.dtd">
<svg version="1.0" xmlns="http://www.w3.org/2000/svg"
 width="592.000000pt" height="592.000000pt" viewBox="0 0 592.000000 592.000000"
 preserveAspectRatio="xMidYMid meet">
<metadata>
Created by potrace 1.11, written by Peter Selinger 2001-2013
</metadata>
<g transform="translate(0.000000,592.000000) scale(0.100000,-0.100000)"
fill="#000000" stroke="none">
<path d="M350 5789 c-54 -15 -112 -41 -150 -68 -52 -37 -150 -141 -133 -141 3
0 -1 -8 -9 -17 -9 -10 -21 -36 -29 -58 -7 -22 -15 -47 -18 -55 -3 -8 -7 -952
-8 -2097 l-3 -2082 451 452 452 452 1606 1 c883 1 1626 5 1650 8 154 23 321
180 357 337 5 19 9 676 11 1460 2 1369 2 1428 -16 1487 -11 34 -31 82 -45 106
-30 51 -108 136 -125 136 -6 0 -11 4 -11 9 0 7 -94 54 -140 70 -28 10 -3804
10 -3840 0z m3560 -452 c37 -11 96 -50 118 -77 7 -8 20 -31 29 -50 15 -32 16
-143 18 -1210 1 -965 -1 -1182 -12 -1216 -15 -46 -50 -88 -103 -125 l-35 -24
-1510 -3 -1510 -2 -226 -226 -226 -226 2 1499 c1 1154 4 1505 13 1527 28 66
84 114 150 131 64 16 3241 18 3292 2z"/>
<path d="M4888 4662 c-68 -2 -98 -6 -99 -15 -3 -65 1 -430 5 -434 2 -3 112 -6
243 -7 261 -1 265 -2 331 -66 71 -68 66 59 67 -1603 l1 -1498 -225 225 -226
226 -1492 0 c-1380 0 -1496 1 -1535 17 -52 21 -90 56 -119 114 -19 36 -23 60
-25 158 -1 64 -2 121 -3 126 -1 6 -83 10 -225 10 l-225 0 1 -240 c1 -258 7
-304 54 -397 15 -29 52 -77 83 -107 76 -75 147 -112 246 -128 22 -4 760 -7
1640 -7 l1600 0 447 -448 c246 -246 450 -448 453 -448 3 0 5 928 5 2063 0
1859 -2 2069 -16 2118 -59 200 -212 325 -414 336 -109 6 -447 9 -572 5z"/>
</g>
</svg>
