<svg version="1" xmlns="http://www.w3.org/2000/svg" width="682.667" height="682.667" viewBox="0 0 512.000000 512.000000"><path d="M234 10c-58.6 5.7-112.1 31.5-153 73.6-19.8 20.3-32.7 38.8-45 63.9-41.5 84.8-30.5 186.2 28.2 261.1 15.6 20 41.3 42.9 63.5 56.6 79 48.9 178.6 48.9 257.6 0 22.2-13.7 47.9-36.6 63.5-56.6 58.8-75 69.7-176.2 28.2-261.1-13-26.7-27.8-47.1-49.2-68.1-19.5-19-38.5-32.7-61.7-44.3-33.3-16.8-66.8-25-104.1-25.6-10.7-.2-23.3 0-28 .5zm59.5 13c23.6 2 39.4 5.4 56.5 12.2 30.7 12.3 71.6 42.7 78.6 58.5 3 6.7 4.5 18.8 3.3 26.2-.9 5.9-4.2 16.3-7.7 24.1-2.2 5.1-11.4 18.5-16.7 24.5l-3.5 4 3.4-6.5c4.2-8.1 11.3-29.7 12.5-38.5 1.3-9.1-.2-17.3-4.9-27-7-14.5-15.7-23.3-37.5-37.9-19.9-13.4-34.6-19.3-70.5-28.5-24.9-6.3-34.9-7.5-62-7.4h-23.5l11-1.4c26.9-3.4 41.3-3.9 61-2.3zm128.9 141.3c5.9 7.7 11.4 24.6 12.3 37.7.7 11.6-.9 23.2-5.3 37.5-7.8 25.3-8.7 29.5-8.8 39.5 0 8.4.3 10.1 2.6 14.6 5.4 10.3 13.1 15 23.2 14.2l5.5-.5-2.1 4.1c-4.4 8.6-14.9 20.6-18 20.6-.4 0 1.6-2.4 4.4-5.2 6.6-6.8 12.8-14.6 12.8-16.2 0-.8-1.9-1.3-5.7-1.4-7.7-.2-14.4-2.6-20.4-7.4-7.1-5.6-9.1-10.4-9-22.1 0-9.6 1.2-16.4 6.1-35.7 1.6-6.3 3.9-18.4 5.1-26.9 1.9-13.3 2.1-16.4 1.1-22.8-1.5-9.5-5.5-17.6-10.9-22.2l-4.3-3.5 3.7-3.8c2-2.1 4-3.8 4.5-3.8.4 0 1.8 1.5 3.2 3.3zm-40.7 35.6l-1 6.9-10.6.6c-17.9 1.1-47.2 3.6-57.6 5.1-12 1.7-13.9 3.1-16.5 13.1l-1.7 6.9-8.8 1.3c-4.9.6-8.9 1.1-9 1-7-11.1-10-14.9-12.2-15.4-4.9-1.3-32.8.5-48.3 3-20.4 3.3-65.7 15.5-74.2 20-2.6 1.4-2.8 1.3-2.8-.4 0-1.9 6.4-21.7 7.3-22.6.2-.3 3.8.4 7.8 1.6 17.9 4.9 57.9-.4 81.8-10.9 6.1-2.7 6.7-2.8 11-1.6 18.3 5.3 47.5 4.1 64.5-2.8 7.8-3.1 8.4-3.2 12.7-1.9 2.4.7 9.1 1.3 14.9 1.4 12.4.1 21-1.9 34-8.1 4.7-2.2 8.8-4.1 9.1-4.1.3 0 .1 3.1-.4 6.9zm-2.1 22.3c-.3 1.3-1.1 5.2-1.8 8.7l-1.2 6.3 4.9 9.2c5.2 9.9 5.3 11.2 1.5 17.4-3.7 6-17.1 10.4-36.3 11.8-17.6 1.3-29.7-2.7-34.5-11.4-2.4-4.3-5.6-20.2-4.4-21.3.4-.4 8.1-5.3 17.2-11 18.8-11.8 18-11.5 40.9-11.8l14.3-.1-.6 2.2zm6 1.3c1.9 2.9 3 16.8 2 23.9l-.7 4.7-4-8-3.9-8 1.5-7.3c.8-4 1.5-7.4 1.5-7.6 0-1.1 2.3.3 3.6 2.3zm-55.6-.8c0 .5-5.1 4.1-11.2 8.2l-11.1 7.3.6-5.3c.4-2.9 1.3-6 2.2-6.8.8-.8 5-2.1 9.3-2.7 9.9-1.5 10.2-1.5 10.2-.7zm-71 12.1c2.5 2.7 5.8 10.7 4.8 11.7-.3.3-8-2.5-17.2-6.2-9.1-3.7-16.2-7.1-15.8-7.5.9-.9 13.1-1.6 20.2-1.1 4.4.3 6 .9 8 3.1zm-24 7.2c21.4 7.3 23.9 7.9 27.9 6.6l2.4-.8-.5 9.8c-.8 13.4-4.5 25.3-9.2 28.9-9.1 7-48.1 10.3-63.6 5.4-10.3-3.3-18.3-18.4-19.7-37.4l-.6-8 3.9-1.4c3-1.1 36.1-9.8 38.4-10 .3-.1 9.7 3 21 6.9zm61.8 11.2c2.9 10.8 10.3 18.8 24.8 27.3 5.5 3.3 6.4 4.2 6.4 6.7 0 3.8-5.2 13.9-9.7 18.9-2 2.2-3.3 4.3-2.9 4.6 1.6 1.7 11-12 13.1-19 1.1-3.9 1.5-4.2 5.6-4.9 2.4-.3 7.6-.7 11.4-.7 9.4-.1 28.6-3.4 36-6.1 3.3-1.2 7.4-3.6 9.2-5.2l3.1-3 4.1 8.3c3 6.2 4.5 11 5.6 18.4 2 11.9 1.6 16.5-2.6 30.5-9 30.4-31.6 60.3-61.9 81.7-17.9 12.7-17.5 12.6-38.5 12.5-30.1-.2-53.5-5-84.9-17.4-18.7-7.4-29.6-13.2-45.3-24.2-.1-.1 2.7-3.3 6.2-7 3.6-3.8 6.5-7.3 6.5-7.8 0-.6 2.5-4.5 5.5-8.8 3-4.3 5.5-8.1 5.5-8.5 0-.4-1.2-.4-2.7 0-1.6.4-4.8 1.1-7.3 1.5-8.5 1.5-22.8-3.7-38-13.8-7.2-4.8-16.2-13.1-12.8-11.9 9.1 3.2 34.5 3.4 41.1.3 2-1 3.7-2.1 3.7-2.5 0-.3-1.5-1.2-3.2-2-3.4-1.4-15.9-11-19.1-14.6-9.7-10.8-17.7-30.3-17.7-43 0-2.8.6-3.4 5.1-5.5 6.9-3.3 15.9-2.7 15.9.9 0 2.5 6.9 23.9 9 28.1 1 2 4 5.9 6.7 8.7 5.7 6 10.4 7.8 26 9.5 17.2 1.9 44.6-1.1 58.8-6.4 4.3-1.6 9.3-6.6 12.1-12 3-5.8 6.1-18.7 7-28.5.7-7.1.8-7.3 3.8-8.2 1.7-.5 5.4-1 8.1-1l5.1-.1 1.2 4.2zm138.6 83.5c-3.3 6.9-16.8 19.3-27.4 25-9.5 5.2-22.5 10.6-24.1 10.1-1.8-.6 1.1-2.6 12.1-8.2 13.8-7 21.6-12.9 27.5-20.5 3.7-4.7 12.2-11.5 13.3-10.5.2.1-.4 2-1.4 4.1zm-259.5 52.2c14.9 10.7 41.1 22.4 64 28.7 14 3.9 39.8 8.4 47.6 8.4h5.1l-.8 6.2c-.5 3.5-1.4 11.5-2.1 17.8l-1.2 11.5-14 .3c-10.9.2-18-.3-32-2.3-25-3.6-39.5-6.5-39.5-8 0-.7 1.1-2.4 2.5-3.9s2.3-3.2 2-3.7c-1-1.5-2.5-1-2.6.8 0 1.2-.2 1.3-.6.5-.3-.7.1-1.9.7-2.7 1-1.2.9-1.5-.4-1.5-.9 0-1.6.4-1.6 1 0 .5-1.1 1-2.5 1s-2.5.5-2.5 1.1c0 .6-2.5.9-7 .7-7.3-.3-7.5-.4-6.1-2.7.6-.9 1.8-1.1 4-.6 2 .4 3.1.3 3.1-.4 0-.6-1.9-1.1-4.4-1.1-2.6 0-4.6-.5-4.9-1.3-.4-.9-.6-.9-.6 0-.1.6.4 1.5.9 1.8 1.5.9 1.2 2.5-.4 2.5-1.9 0-4.8-2.9-4.1-4.1.4-.5.1-.9-.4-.9-.6 0-1.1.6-1.1 1.4 0 .8-.7 2.2-1.6 3-1.4 1.5-1.3 1.6.8 1.6 1.3 0 2.8.4 3.3.9.6.4 3.3 1.4 6 2 9.4 2.3 16.5 4.5 16.1 4.9-.4.3-16.8-3.7-32.6-8.1l-8.5-2.4-.1-6.9c-.1-6.6.2-10.6 2.6-36.9 1.2-11.9 2.2-15 4.6-14.1.6.2 4.4 2.7 8.3 5.5zM74 405.6c0 .8-.4 1.4-1 1.4-.5 0-1-.9-1-2.1 0-1.1.5-1.7 1-1.4.6.3 1 1.3 1 2.1zm268.3 44.1c9.8 6 15.1 11.3 11.2 11.3-.8 0-1.2-.6-.9-1.3.3-.8-1-2.5-2.8-3.9-3.4-2.6-14-8.8-15.1-8.8-.3 0 1 2.3 2.9 5.1s3.4 5.8 3.4 6.6c0 .9-1.2-.6-2.6-3.3-1.4-2.7-4.2-6.6-6.2-8.7l-3.7-3.9 3.9 1.6c2.1.9 6.5 3.2 9.9 5.3zM197.5 447c-.3.5-1.2.7-2 .3-2.1-.7-1.9-1.3.6-1.3 1.1 0 1.8.4 1.4 1zm146 16.2c.6.4.2.8-.7.8-1 0-1.8-.7-1.8-1.7 0-.9.3-1.2.8-.7.4.5 1.2 1.2 1.7 1.6zm6-1.2c-1.1.5-2.7.9-3.5.9-.9 0-.8-.4.5-.9 1.1-.5 2.7-.9 3.5-.9.9 0 .8.4-.5.9z"/><path d="M332 235.2c-4.8 1.4-8.7 4.4-10.6 8.1l-1.7 3.2 2.5-2.3c3.2-2.9 3.9-2.8 3.3.5-.8 4.2 3.5 8.3 8.5 8.3 3.1 0 7.6-2.9 9-5.8.9-2 .7-3.2-.9-6.5l-2-3.9 5.5.4c3.4.3 7.7 1.6 11.5 3.6 7.2 3.7 8 3.8 10.2 1.4 2.4-2.6 2.1-3.6-.4-1.9-1.9 1.4-2.6 1.3-7.2-.8-10.7-4.9-20.4-6.4-27.7-4.3zM211.3 247.5c-7.8 2.1-16.6 5.9-21.5 9.3l-4.5 3.1-4.3-2.5c-2.3-1.3-3.8-1.8-3.1-1.1.6.8 2.8 2.2 5 3.2l3.9 1.7 6.2-3.6c6.6-3.9 7.8-4 6.1-.8-1.8 3.4-1.3 6.2 1.8 9.3 2.2 2.2 3.9 2.9 6.8 2.9 4.8 0 9.9-3 10.5-6.4.7-3.3-1.9-8.5-4.9-9.9-1.3-.5-2.3-1.4-2.3-1.8 0-1.1 5.7-2.1 12.7-2.2 5.5-.1 6.8.3 11 3.3l4.8 3.3-3-3.3c-1.6-1.8-4.4-3.9-6.2-4.6-4.1-1.8-12.2-1.7-19 .1zM300.3 301.6c-2.4 1.4-4.3 2.9-4.3 3.5 0 1.3.9 1.1 3.8-1 1.5-1 3.7-2.2 5-2.5 2.3-.8 3.1-2.6 1-2.6-.7 0-3.2 1.2-5.5 2.6zM322 332c-3 1.1-7.2 1.9-9.2 1.9-2.1.1-3.8.5-3.8 1.1 0 .5 1.4.7 3.3.4 4.5-.8 16.7-4.4 16.7-4.9 0-.7-.8-.5-7 1.5zM289.5 334.9c-9.1.9-15.2 3.9-22.9 11.4l-6.1 5.9 5.9-5.1c9.9-8.7 14.2-10.4 27.6-11 7.2-.2 10.6-.7 9-1.2-2.9-.8-4.1-.8-13.5 0zM311.1 351.2c-6.5.9-11.5 2.7-7.8 2.8 3.8 0 15.7-2.3 15.7-3.1 0-.5-.3-.8-.7-.8-.5.1-3.7.6-7.2 1.1zM253.8 434.7c.6.2 1.8.2 2.5 0 .6-.3.1-.5-1.3-.5-1.4 0-1.9.2-1.2.5z"/><path d="M258 434.8c0 .9-3.4 1.2-14.2 1.1-14.4-.2-22.8.6-26.1 2.3-1.2.6-2.3.5-3.3-.3-1.2-1-1.3-.9-.8.5.6 1.6-.4 2.1-3.5 1.7-.8-.2-1 .3-.6 1.1.3.7 0 .5-.8-.5-2.5-3.1-3.8-1.6-1.4 1.7 1.2 1.6 1.5 1.6 5.7-.8 7.5-4.1 13.3-4.6 45-4.4 28.3.3 34.5-.2 30.5-2.5-1.2-.6-2-.6-2.5.3-1 1.6-18.6 2.2-21.4.8-1.3-.7-2.1-.6-2.7.3-.6 1.1-1.1 1-2.3-.6-.9-1.1-1.6-1.4-1.6-.7zM169 438.5c0 .8.4 1.5 1 1.5.5 0 .7-.7.4-1.5-.4-.8-.8-1.5-1-1.5-.2 0-.4.7-.4 1.5zM173.1 440.4c-1 1.2-.8 1.3.8.9 1.2-.3 1.8-.9 1.5-1.4-.7-1.2-1-1.1-2.3.5zM197 440c0 .5.5 1 1 1 .6 0 1-.5 1-1 0-.6-.4-1-1-1-.5 0-1 .4-1 1zM168.5 442c.3.5 1.1 1 1.6 1 .6 0 .7-.5.4-1-.3-.6-1.1-1-1.6-1-.6 0-.7.4-.4 1z"/></svg>