<?xml version="1.0" standalone="no"?>
<!DOCTYPE svg PUBLIC "-//W3C//DTD SVG 20010904//EN"
 "http://www.w3.org/TR/2001/REC-SVG-20010904/DTD/svg10.dtd">
<svg version="1.0" xmlns="http://www.w3.org/2000/svg"
 width="700.000000pt" height="700.000000pt" viewBox="0 0 700.000000 700.000000"
 preserveAspectRatio="xMidYMid meet">
<metadata>
Created by potrace 1.11, written by Peter Selinger 2001-2013
</metadata>
<g transform="translate(0.000000,700.000000) scale(0.100000,-0.100000)"
fill="#000000" stroke="none">
<path d="M4648 6195 c-2 -2 -33 -5 -70 -9 -239 -22 -511 -129 -710 -278 -67
-51 -270 -247 -680 -658 -321 -322 -597 -601 -612 -620 -159 -199 -265 -437
-310 -697 -18 -100 -18 -345 -1 -448 51 -306 190 -586 394 -793 104 -105 231
-131 352 -70 107 54 162 141 163 258 0 93 -21 140 -100 225 -169 181 -247 389
-240 635 6 168 55 320 149 460 42 63 1169 1192 1242 1245 101 73 232 131 335
149 19 3 46 8 60 11 53 11 218 6 287 -9 172 -37 328 -122 448 -244 169 -171
254 -374 255 -610 1 -53 -2 -108 -4 -122 -3 -14 -11 -50 -17 -80 -22 -107 -88
-246 -159 -335 -17 -22 -72 -81 -121 -132 -49 -51 -89 -94 -89 -97 0 -3 11
-40 25 -82 14 -42 27 -86 29 -98 3 -12 11 -52 19 -91 9 -38 18 -95 21 -125 3
-30 8 -66 11 -79 2 -14 6 -67 7 -119 1 -51 5 -95 8 -97 7 -4 439 429 500 500
23 28 51 61 63 75 39 46 142 224 171 295 15 39 32 79 36 90 48 114 81 301 84
474 13 627 -394 1200 -994 1401 -47 16 -101 32 -120 35 -19 3 -51 10 -70 15
-19 5 -61 12 -92 15 -57 7 -265 14 -270 10z"/>
<path d="M4016 4392 c-68 -22 -146 -100 -173 -172 -41 -109 -16 -220 70 -310
291 -305 338 -744 115 -1092 -49 -77 -1161 -1197 -1253 -1262 -162 -115 -314
-165 -508 -165 -62 0 -142 7 -178 14 -403 85 -702 448 -699 850 1 154 25 265
84 385 52 105 90 155 202 270 57 58 102 112 100 120 -1 8 -13 48 -25 88 -50
164 -78 339 -85 524 -1 37 -4 70 -7 72 -6 6 -470 -461 -519 -523 -19 -24 -40
-48 -45 -55 -28 -30 -107 -160 -143 -236 -135 -280 -174 -547 -128 -880 9 -65
54 -224 86 -303 52 -128 166 -319 235 -393 5 -6 28 -31 50 -55 112 -122 261
-233 412 -307 112 -56 274 -114 353 -126 76 -13 95 -15 137 -22 67 -10 227
-11 312 -2 266 29 516 126 730 286 44 32 331 311 676 657 630 630 671 675 770
861 36 68 101 229 110 274 2 8 10 42 18 75 28 108 39 233 34 379 -3 77 -8 155
-11 171 -49 242 -98 376 -198 538 -106 174 -228 304 -313 336 -66 25 -141 26
-209 3z"/>
</g>
</svg>
