<svg width="192" height="192" viewBox="0 0 192 192" fill="none" xmlns="http://www.w3.org/2000/svg">
<path fill-rule="evenodd" clip-rule="evenodd" d="M91.5641 26.568C92.8387 20.2579 99.3352 16.4634 105.47 18.4456C109.925 19.8846 112.941 24.0248 112.941 28.6977V65.205C112.941 69.8749 116.734 73.6605 121.412 73.6605H132.706C148.707 73.6605 158.783 77.0245 164.963 82.936C171.07 88.7778 175.059 98.7386 175.059 115.938V121.575C175.059 138.775 171.07 148.735 164.963 154.576C158.783 160.488 148.707 163.852 132.706 163.852H104.579H62.1148C62.1176 162.985 62.1176 162.038 62.1176 160.997V99.0272C62.1176 95.9472 62.1176 93.6905 62.0448 91.8909L72.8301 84.3767C78.1022 80.7038 81.7532 75.1436 83.0237 68.8525L91.5641 26.568ZM55.4184 75.8851L63.1342 70.5094C64.832 69.3267 66.0076 67.5362 66.4168 65.5103L74.9571 23.2259C78.2318 7.01269 94.9232 -2.73656 110.687 2.35644C122.13 6.05362 129.882 16.6915 129.882 28.6977V56.7496H132.706C150.587 56.7496 165.923 60.4319 176.684 70.7266C187.518 81.0912 192 96.4973 192 115.938V121.575C192 141.016 187.518 156.422 176.684 166.786C165.923 177.08 150.587 180.763 132.706 180.763H104.579H58.0732C54.4879 186.239 48.7969 190.197 42.118 191.524C39.7178 192 36.8315 192 31.0588 192C25.2862 192 22.3999 192 19.9996 191.524C10.143 189.567 2.43806 181.876 0.477402 172.036C-6.31108e-07 169.64 0 166.76 0 160.997V99.0272C0 93.2646 -6.31108e-07 90.3835 0.477402 87.9875C2.43806 78.1485 10.143 70.4573 19.9996 68.5002C22.3999 68.0236 25.2862 68.0236 31.0588 68.0236C36.8315 68.0236 39.7178 68.0236 42.118 68.5002C47.3303 69.5351 51.9407 72.1735 55.4184 75.8851ZM45.1765 99.0272V160.997C45.1765 163.993 45.1742 165.817 45.1267 167.201C45.0889 168.302 45.032 168.691 45.0234 168.743C44.3983 171.869 41.9502 174.312 38.8183 174.937C38.7663 174.946 38.3772 175.002 37.2734 175.039C35.8873 175.087 34.06 175.089 31.0588 175.089C28.0576 175.089 26.2304 175.087 24.8442 175.039C23.7406 175.002 23.3514 174.946 23.2993 174.937C20.1675 174.312 17.7193 171.869 17.0942 168.743C17.0856 168.691 17.0287 168.302 16.991 167.201C16.9434 165.817 16.9412 163.993 16.9412 160.997V99.0272C16.9412 96.0312 16.9434 94.2071 16.991 92.8235C17.0287 91.7224 17.0855 91.3337 17.0941 91.2813C17.7193 88.1551 20.1675 85.7113 23.2993 85.0872C23.3518 85.0786 23.7413 85.0219 24.8442 84.9842C26.2304 84.9368 28.0576 84.9346 31.0588 84.9346C34.06 84.9346 35.8873 84.9368 37.2734 84.9842C38.3763 85.0219 38.7657 85.0786 38.8183 85.0872C41.9502 85.7113 44.3983 88.1552 45.0236 91.2813C45.0321 91.3339 45.0889 91.7226 45.1267 92.8235C45.1742 94.2071 45.1765 96.0312 45.1765 99.0272Z" fill="#E6739F"/>
</svg>
